<svg width="50" height="50" viewBox="0 0 50 50" fill="none" xmlns="http://www.w3.org/2000/svg">
<g clip-path="url(#clip0_10_30)" filter="url(#filter0_d_10_30)">
<path d="M43.375 3.93291L32.8658 3.93295V1.31714C32.8658 0.591982 32.2785 0.00463867 31.5533 0.00463867C30.8282 0.00463867 30.2408 0.591982 30.2408 1.31714V3.93229H19.7408V1.31714C19.7408 0.591982 19.1535 0.00463867 18.4283 0.00463867C17.7032 0.00463867 17.1158 0.591982 17.1158 1.31714V3.93229H6.625C5.17534 3.93229 4 5.10764 4 6.55729V39.3698C4 40.8194 5.17534 41.9948 6.625 41.9948H43.375C44.8247 41.9948 46 40.8194 46 39.3698V6.55729C46 5.10825 44.8247 3.93291 43.375 3.93291ZM43.375 39.3698H6.625V6.55729H17.1158V7.87964C17.1158 8.60475 17.7032 9.19214 18.4283 9.19214C19.1535 9.19214 19.7408 8.60475 19.7408 7.87964V6.55795H30.2408V7.88029C30.2408 8.60545 30.8282 9.19279 31.5533 9.19279C32.2785 9.19279 32.8658 8.60545 32.8658 7.88029V6.55795H43.375V39.3698ZM34.1875 20.9954H36.8125C37.537 20.9954 38.125 20.4074 38.125 19.6829V17.0579C38.125 16.3334 37.537 15.7454 36.8125 15.7454H34.1875C33.463 15.7454 32.875 16.3334 32.875 17.0579V19.6829C32.875 20.4074 33.463 20.9954 34.1875 20.9954ZM34.1875 31.4948H36.8125C37.537 31.4948 38.125 30.9074 38.125 30.1823V27.5573C38.125 26.8328 37.537 26.2448 36.8125 26.2448H34.1875C33.463 26.2448 32.875 26.8328 32.875 27.5573V30.1823C32.875 30.9081 33.463 31.4948 34.1875 31.4948ZM26.3125 26.2448H23.6875C22.963 26.2448 22.375 26.8328 22.375 27.5573V30.1823C22.375 30.9074 22.963 31.4948 23.6875 31.4948H26.3125C27.037 31.4948 27.625 30.9074 27.625 30.1823V27.5573C27.625 26.8334 27.037 26.2448 26.3125 26.2448ZM26.3125 15.7454H23.6875C22.963 15.7454 22.375 16.3334 22.375 17.0579V19.6829C22.375 20.4074 22.963 20.9954 23.6875 20.9954H26.3125C27.037 20.9954 27.625 20.4074 27.625 19.6829V17.0579C27.625 16.3328 27.037 15.7454 26.3125 15.7454ZM15.8125 15.7454H13.1875C12.463 15.7454 11.875 16.3334 11.875 17.0579V19.6829C11.875 20.4074 12.463 20.9954 13.1875 20.9954H15.8125C16.537 20.9954 17.125 20.4074 17.125 19.6829V17.0579C17.125 16.3328 16.537 15.7454 15.8125 15.7454ZM15.8125 26.2448H13.1875C12.463 26.2448 11.875 26.8328 11.875 27.5573V30.1823C11.875 30.9074 12.463 31.4948 13.1875 31.4948H15.8125C16.537 31.4948 17.125 30.9074 17.125 30.1823V27.5573C17.125 26.8334 16.537 26.2448 15.8125 26.2448Z" fill="#005F15"/>
</g>
<defs>
<filter id="filter0_d_10_30" x="0" y="0" width="50" height="50" filterUnits="userSpaceOnUse" color-interpolation-filters="sRGB">
<feFlood flood-opacity="0" result="BackgroundImageFix"/>
<feColorMatrix in="SourceAlpha" type="matrix" values="0 0 0 0 0 0 0 0 0 0 0 0 0 0 0 0 0 0 127 0" result="hardAlpha"/>
<feOffset dy="4"/>
<feGaussianBlur stdDeviation="2"/>
<feComposite in2="hardAlpha" operator="out"/>
<feColorMatrix type="matrix" values="0 0 0 0 0 0 0 0 0 0 0 0 0 0 0 0 0 0 0.25 0"/>
<feBlend mode="normal" in2="BackgroundImageFix" result="effect1_dropShadow_10_30"/>
<feBlend mode="normal" in="SourceGraphic" in2="effect1_dropShadow_10_30" result="shape"/>
</filter>
<clipPath id="clip0_10_30">
<rect width="42" height="42" fill="white" transform="translate(4)"/>
</clipPath>
</defs>
</svg>
