<svg width="14" height="14" viewBox="0 0 14 14" fill="none" xmlns="http://www.w3.org/2000/svg">
<g clip-path="url(#clip0_19_213)">
<path d="M13.5009 3.56123e-08C13.4232 -2.92608e-05 13.3466 0.0180173 13.2771 0.0527336L9.4882 1.94771L5.20378 0.0432416C5.19677 0.0402533 5.18878 0.039726 5.18128 0.0367378C5.162 0.0295308 5.14228 0.0235251 5.12227 0.0187497C5.10238 0.0133885 5.08217 0.00919911 5.06178 0.00624017C5.02117 0.00290038 4.98036 0.00290038 4.93979 0.00624017C4.9194 0.00919911 4.89918 0.0133885 4.87929 0.0187497C4.85928 0.0235251 4.83956 0.0295308 4.82029 0.0367378C4.81279 0.039726 4.80479 0.040224 4.79779 0.0432416L0.297855 2.04322C0.117214 2.12343 0.000819002 2.30255 0.000848299 2.50019V13.5C0.000936188 13.6692 0.086511 13.8268 0.228335 13.919C0.370188 14.0114 0.549102 14.0257 0.703816 13.957L5.00075 12.047L9.29769 13.957C9.30519 13.96 9.31319 13.957 9.32069 13.9615C9.44174 14.0157 9.58069 14.0126 9.69917 13.953C9.70716 13.9496 9.71616 13.953 9.72416 13.9475L13.7241 11.9476C13.8936 11.8629 14.0007 11.6896 14.0006 11.5V0.500237C14.0008 0.224088 13.777 0.000117221 13.5009 3.56123e-08ZM4.50078 11.1751L1.00082 12.7305V2.8252L4.50078 1.26971V11.1751ZM9.00071 12.7305L5.50075 11.1751V1.26971L9.00071 2.82517V12.7305ZM13.0006 11.1911L10.0007 12.691V2.80918L13.0006 1.3092V11.1911Z" fill="#84829A"/>
</g>
<defs>
<clipPath id="clip0_19_213">
<rect width="14" height="14" fill="white"/>
</clipPath>
</defs>
</svg>
