<svg width="32" height="26" viewBox="0 0 32 26" fill="none" xmlns="http://www.w3.org/2000/svg">
<path d="M5.89113 14.5586C5.47955 14.5586 5.07721 14.6806 4.73499 14.9093C4.39276 15.138 4.12604 15.463 3.96853 15.8432C3.81102 16.2235 3.76981 16.6419 3.85011 17.0456C3.9304 17.4493 4.1286 17.8201 4.41964 18.1111C4.71067 18.4021 5.08147 18.6003 5.48515 18.6806C5.88883 18.7609 6.30725 18.7197 6.6875 18.5622C7.06776 18.4047 7.39277 18.138 7.62143 17.7958C7.8501 17.4535 7.97215 17.0512 7.97215 16.6396C7.97215 16.0877 7.7529 15.5584 7.36263 15.1681C6.97237 14.7778 6.44305 14.5586 5.89113 14.5586ZM5.89113 17.6801C5.68534 17.6801 5.48417 17.6191 5.31306 17.5048C5.14195 17.3904 5.00858 17.2279 4.92983 17.0378C4.85108 16.8477 4.83047 16.6385 4.87062 16.4366C4.91077 16.2348 5.00987 16.0494 5.15538 15.9039C5.3009 15.7583 5.4863 15.6592 5.68814 15.6191C5.88998 15.5789 6.09919 15.5996 6.28932 15.6783C6.47945 15.7571 6.64195 15.8904 6.75628 16.0615C6.87062 16.2326 6.93164 16.4338 6.93164 16.6396C6.93164 16.9156 6.82202 17.1802 6.62688 17.3754C6.43175 17.5705 6.16709 17.6801 5.89113 17.6801Z" fill="white"/>
<path d="M26.7012 14.5586C26.2897 14.5586 25.8873 14.6806 25.5451 14.9093C25.2029 15.138 24.9362 15.463 24.7786 15.8432C24.6211 16.2235 24.5799 16.6419 24.6602 17.0456C24.7405 17.4493 24.9387 17.8201 25.2298 18.1111C25.5208 18.4021 25.8916 18.6003 26.2953 18.6806C26.6989 18.7609 27.1174 18.7197 27.4976 18.5622C27.8779 18.4047 28.2029 18.138 28.4315 17.7958C28.6602 17.4535 28.7823 17.0512 28.7823 16.6396C28.7823 16.0877 28.563 15.5584 28.1727 15.1681C27.7825 14.7778 27.2532 14.5586 26.7012 14.5586ZM26.7012 17.6801C26.4955 17.6801 26.2943 17.6191 26.1232 17.5048C25.9521 17.3904 25.8187 17.2279 25.7399 17.0378C25.6612 16.8477 25.6406 16.6385 25.6807 16.4366C25.7209 16.2348 25.82 16.0494 25.9655 15.9039C26.111 15.7583 26.2964 15.6592 26.4983 15.6191C26.7001 15.5789 26.9093 15.5996 27.0994 15.6783C27.2896 15.7571 27.4521 15.8904 27.5664 16.0615C27.6807 16.2326 27.7418 16.4338 27.7418 16.6396C27.7418 16.9156 27.6321 17.1802 27.437 17.3754C27.2419 17.5705 26.9772 17.6801 26.7012 17.6801Z" fill="white"/>
<path d="M11.614 17.1597H20.9785V18.2002H11.614V17.1597Z" fill="white"/>
<path d="M11.614 15.0786H20.9785V16.1191H11.614V15.0786Z" fill="white"/>
<path d="M14.7355 7.2749H17.857V8.31541H14.7355V7.2749Z" fill="white"/>
<path d="M31.9038 11.957V10.9165C31.9026 10.503 31.7377 10.1067 31.4453 9.81427C31.1529 9.52184 30.7566 9.357 30.343 9.35577H28.2828L27.2059 5.57873L26.8833 4.2937C26.7987 3.95629 26.6038 3.65683 26.3295 3.44287C26.0552 3.22891 25.7173 3.11271 25.3694 3.11273H20.9785V1.03172C20.9776 0.756011 20.8678 0.491832 20.6728 0.296878C20.4778 0.101923 20.2137 -0.00796564 19.938 -0.00878906H12.6544C12.3787 -0.00796564 12.1145 0.101923 11.9196 0.296878C11.7246 0.491832 11.6147 0.756011 11.6139 1.03172V3.11273H7.22298C6.87511 3.11271 6.53721 3.22891 6.26292 3.44287C5.98863 3.65683 5.79369 3.95629 5.70904 4.2937L5.39169 5.57353L4.30956 9.35577H2.24936C1.8358 9.357 1.43953 9.52184 1.1471 9.81427C0.854667 10.1067 0.689834 10.503 0.688599 10.9165V11.957C0.689441 12.2206 0.757189 12.4796 0.885492 12.7098C1.0138 12.9401 1.19845 13.1339 1.42216 13.2733C0.951847 13.7565 0.688663 14.4042 0.688599 15.0786V21.3216C0.689316 21.5399 0.736017 21.7555 0.825657 21.9545C0.915297 22.1535 1.04587 22.3314 1.20885 22.4766V24.4431C1.21009 24.8567 1.37492 25.2529 1.66735 25.5454C1.95978 25.8378 2.35605 26.0026 2.76961 26.0039H6.93164C7.3452 26.0026 7.74146 25.8378 8.0339 25.5454C8.32633 25.2529 8.49116 24.8567 8.4924 24.4431V22.8824H24.1V24.4431C24.1012 24.8567 24.2661 25.2529 24.5585 25.5454C24.8509 25.8378 25.2472 26.0026 25.6607 26.0039H29.8228C30.2363 26.0026 30.6326 25.8378 30.925 25.5454C31.2175 25.2529 31.3823 24.8567 31.3835 24.4431V22.4766C31.5465 22.3314 31.6771 22.1535 31.7667 21.9545C31.8564 21.7555 31.9031 21.5399 31.9038 21.3216V15.0786C31.9037 14.4042 31.6405 13.7565 31.1702 13.2733C31.3939 13.1339 31.5786 12.9401 31.7069 12.7098C31.8352 12.4796 31.9029 12.2206 31.9038 11.957ZM12.6544 1.03172H19.938V3.11273H12.6544V1.03172ZM6.71833 4.54863C6.74622 4.43584 6.81106 4.33562 6.90252 4.26397C6.99398 4.19231 7.10679 4.15333 7.22298 4.15324H25.3694C25.4856 4.15333 25.5984 4.19231 25.6899 4.26397C25.7813 4.33562 25.8462 4.43584 25.8741 4.54863L26.0353 5.19374H6.55705L6.71833 4.54863ZM6.28132 6.23425H26.3111L28.0903 12.4773H13.1279C13.0056 11.7502 12.6296 11.09 12.0667 10.6139C11.5038 10.1378 10.7904 9.87652 10.0532 9.87652C9.3159 9.87652 8.60249 10.1378 8.03959 10.6139C7.4767 11.09 7.10074 11.7502 6.97846 12.4773H4.50205L6.28132 6.23425ZM12.0613 12.4773H8.04498C8.15857 12.0309 8.41767 11.635 8.78134 11.3523C9.14501 11.0696 9.59252 10.9161 10.0532 10.9161C10.5138 10.9161 10.9613 11.0696 11.325 11.3523C11.6886 11.635 11.9477 12.0309 12.0613 12.4773ZM1.7291 10.9165C1.7291 10.7785 1.78392 10.6462 1.88148 10.5487C1.97905 10.4511 2.11138 10.3963 2.24936 10.3963H4.01302L3.41993 12.4773H2.24936C2.11138 12.4773 1.97905 12.4225 1.88148 12.3249C1.78392 12.2273 1.7291 12.095 1.7291 11.957V10.9165ZM7.45189 24.4431C7.45189 24.5811 7.39708 24.7134 7.29951 24.811C7.20194 24.9086 7.06962 24.9634 6.93164 24.9634H2.76961C2.63163 24.9634 2.4993 24.9086 2.40174 24.811C2.30417 24.7134 2.24936 24.5811 2.24936 24.4431V22.8824H7.45189V24.4431ZM30.343 24.4431C30.343 24.5811 30.2882 24.7134 30.1906 24.811C30.0931 24.9086 29.9608 24.9634 29.8228 24.9634H25.6607C25.5228 24.9634 25.3904 24.9086 25.2929 24.811C25.1953 24.7134 25.1405 24.5811 25.1405 24.4431V22.8824H30.343V24.4431ZM30.8633 21.3216C30.8633 21.4596 30.8085 21.5919 30.7109 21.6895C30.6133 21.787 30.481 21.8418 30.343 21.8418H2.24936C2.11138 21.8418 1.97905 21.787 1.88148 21.6895C1.78392 21.5919 1.7291 21.4596 1.7291 21.3216V20.8013H30.8633V21.3216ZM30.8633 19.7608H1.7291V15.0786C1.73034 14.665 1.89517 14.2687 2.18761 13.9763C2.48004 13.6839 2.87631 13.519 3.28986 13.5178H29.3025C29.7161 13.519 30.1123 13.6839 30.4048 13.9763C30.6972 14.2687 30.862 14.665 30.8633 15.0786V19.7608ZM30.8633 11.957C30.8633 12.095 30.8085 12.2273 30.7109 12.3249C30.6133 12.4225 30.481 12.4773 30.343 12.4773H29.1725L28.5794 10.3963H30.343C30.481 10.3963 30.6133 10.4511 30.7109 10.5487C30.8085 10.6462 30.8633 10.7785 30.8633 10.9165V11.957Z" fill="white"/>
</svg>
