<svg width="75" height="56" viewBox="0 0 75 56" fill="none" xmlns="http://www.w3.org/2000/svg">
<path d="M3.85566 1.336H12.5437C14.0797 1.336 14.8477 1.952 14.8477 3.184C14.8477 3.616 14.6477 4.08 14.2477 4.576C13.5917 4.288 12.6477 4.144 11.4157 4.144H9.51966V16.528C9.51966 17.392 9.78366 17.96 10.3117 18.232C9.70366 18.92 8.96766 19.264 8.10366 19.264C6.53566 19.264 5.75166 18.312 5.75166 16.408V4.144H2.72766C1.19166 4.144 0.423656 3.528 0.423656 2.296C0.423656 1.864 0.623656 1.4 1.02366 0.904C1.67966 1.192 2.62366 1.336 3.85566 1.336ZM17.3056 16.408V8.896C17.3056 8.064 17.0336 7.504 16.4896 7.216C17.0976 6.528 17.8336 6.184 18.6976 6.184C20.1216 6.184 20.9056 6.952 21.0496 8.488C21.6896 6.952 22.7536 6.184 24.2416 6.184C24.9936 6.184 25.6096 6.408 26.0896 6.856C26.5856 7.304 26.8336 7.904 26.8336 8.656C26.8336 9.408 26.6416 10.008 26.2576 10.456C25.8896 10.888 25.3216 11.104 24.5536 11.104C24.4576 11.104 24.2496 11.088 23.9296 11.056C23.9936 10.768 24.0256 10.584 24.0256 10.504C24.0256 10.104 23.9056 9.792 23.6656 9.568C23.4416 9.328 23.1616 9.208 22.8256 9.208C21.9616 9.208 21.3776 9.864 21.0736 11.176V16.528C21.0736 17.392 21.3376 17.96 21.8656 18.232C21.2576 18.92 20.5216 19.264 19.6576 19.264C18.0896 19.264 17.3056 18.312 17.3056 16.408ZM32.3095 15.712C32.3095 16.496 32.7575 16.888 33.6535 16.888C34.3095 16.888 34.9015 16.584 35.4295 15.976V13.648C33.3495 13.76 32.3095 14.448 32.3095 15.712ZM39.1975 10.504V15.952C39.1975 16.96 39.6295 17.6 40.4935 17.872C40.2055 18.272 39.8135 18.608 39.3175 18.88C38.8375 19.136 38.3255 19.264 37.7815 19.264C36.5975 19.264 35.8615 18.736 35.5735 17.68C34.5815 18.736 33.3415 19.264 31.8535 19.264C30.7495 19.264 29.8695 18.992 29.2135 18.448C28.5575 17.904 28.2295 17.136 28.2295 16.144C28.2295 14.928 28.8615 13.96 30.1255 13.24C31.4055 12.504 33.1735 12.12 35.4295 12.088V9.808C35.4295 8.736 34.9975 8.2 34.1335 8.2C33.7815 8.2 33.4855 8.312 33.2455 8.536C33.0215 8.744 32.9095 9.032 32.9095 9.4C32.9095 9.752 33.0375 10.08 33.2935 10.384C32.7495 10.96 32.0615 11.248 31.2295 11.248C30.4135 11.248 29.8055 11.064 29.4055 10.696C29.0215 10.328 28.8295 9.848 28.8295 9.256C28.8295 8.36 29.3735 7.624 30.4615 7.048C31.5655 6.472 32.8455 6.184 34.3015 6.184C35.7735 6.184 36.9575 6.528 37.8535 7.216C38.7495 7.904 39.1975 9 39.1975 10.504ZM50.3176 9.256C50.4936 8.728 50.5816 8.248 50.5816 7.816C50.5816 7.368 50.4776 6.968 50.2696 6.616C50.8136 6.328 51.4216 6.184 52.0936 6.184C52.7816 6.184 53.3176 6.352 53.7016 6.688C54.0856 7.024 54.2776 7.44 54.2776 7.936C54.2776 8.432 54.1416 9.032 53.8696 9.736L51.3496 16.264C50.9496 17.336 50.5096 18.088 50.0296 18.52C49.5656 18.952 48.8616 19.168 47.9176 19.168C46.9896 19.168 46.2856 18.968 45.8056 18.568C45.3256 18.168 44.9176 17.4 44.5816 16.264L42.5176 9.232C42.2616 8.416 41.9256 7.864 41.5096 7.576C41.7016 7.176 42.0136 6.848 42.4456 6.592C42.8776 6.32 43.3336 6.184 43.8136 6.184C45.2376 6.184 46.1016 6.968 46.4056 8.536L47.9896 16.672L50.3176 9.256ZM62.3435 11.056C62.6315 11.024 62.8475 10.936 62.9915 10.792C63.1355 10.632 63.2075 10.336 63.2075 9.904C63.2075 9.472 63.0795 9.08 62.8235 8.728C62.5835 8.36 62.2475 8.176 61.8155 8.176C61.3835 8.176 60.9755 8.448 60.5915 8.992C60.2075 9.536 59.9515 10.328 59.8235 11.368L62.3435 11.056ZM62.7515 16.648C64.0795 16.648 65.1915 16.144 66.0875 15.136C66.4555 15.296 66.6395 15.632 66.6395 16.144C66.6395 16.912 66.1835 17.624 65.2715 18.28C64.3595 18.936 63.2875 19.264 62.0555 19.264C60.1515 19.264 58.6635 18.744 57.5915 17.704C56.5355 16.664 56.0075 15.176 56.0075 13.24C56.0075 11.288 56.5915 9.624 57.7595 8.248C58.9275 6.872 60.4075 6.184 62.1995 6.184C63.5755 6.184 64.7115 6.632 65.6075 7.528C66.5035 8.408 66.9515 9.416 66.9515 10.552C66.9515 11.432 66.7435 12.064 66.3275 12.448C65.9115 12.832 65.1995 13.04 64.1915 13.072L59.7515 13.192C59.8635 15.496 60.8635 16.648 62.7515 16.648ZM73.3158 3.04V16.528C73.3158 17.392 73.5798 17.96 74.1078 18.232C73.4998 18.92 72.7638 19.264 71.8998 19.264C70.3318 19.264 69.5478 18.312 69.5478 16.408V2.896C69.5478 2.096 69.2758 1.528 68.7318 1.192C69.3398 0.519999 70.0758 0.183999 70.9398 0.183999C72.5238 0.183999 73.3158 1.136 73.3158 3.04ZM28.2401 43.04V51.776C28.2401 52.928 28.5921 53.6853 29.2961 54.048C28.4855 54.9653 27.5255 55.424 26.4161 55.424C25.3068 55.424 24.4961 55.1147 23.9841 54.496C23.4721 53.8773 23.2161 52.9173 23.2161 51.616V49.888C22.0001 51.5307 20.1121 52.352 17.5521 52.352C15.0775 52.352 12.7948 51.456 10.7041 49.664C9.70146 48.7893 8.88013 47.6053 8.24013 46.112C7.62146 44.6187 7.31213 42.944 7.31213 41.088C7.31213 37.248 8.42146 34.1333 10.6401 31.744C12.8801 29.3333 16.0375 28.128 20.1121 28.128C22.3948 28.128 24.3361 28.5973 25.9361 29.536C27.5575 30.4747 28.3681 31.6053 28.3681 32.928C28.3681 33.696 28.0055 34.3467 27.2801 34.88C26.5761 35.392 25.7655 35.648 24.8481 35.648C23.9308 35.648 23.1095 35.424 22.3841 34.976C22.4055 34.7627 22.4161 34.56 22.4161 34.368C22.4161 33.408 22.1388 32.5973 21.5841 31.936C21.0295 31.2747 20.1975 30.944 19.0881 30.944C17.1468 30.944 15.6108 31.776 14.4801 33.44C13.2855 35.1467 12.6881 37.344 12.6881 40.032C12.6881 42.72 13.2428 44.8107 14.3521 46.304C15.4615 47.776 17.0188 48.512 19.0241 48.512C21.8188 48.512 23.2161 47.2213 23.2161 44.64V43.136H22.1921C21.0828 43.136 20.0801 43.1573 19.1841 43.2C18.8001 42.6453 18.6081 42.0053 18.6081 41.28C18.6081 40.5333 18.9815 40.0213 19.7281 39.744C20.4748 39.4453 21.7548 39.296 23.5681 39.296C25.3815 39.296 26.6081 39.584 27.2481 40.16C27.9095 40.736 28.2401 41.696 28.2401 43.04ZM39.9534 37.344C38.1187 37.344 37.2014 38.944 37.2014 42.144C37.2014 42.6133 37.2227 43.104 37.2654 43.616C37.5214 47.8187 38.6947 49.92 40.7854 49.92C42.62 49.92 43.5374 48.3093 43.5374 45.088C43.5374 44.64 43.516 44.1493 43.4734 43.616C43.1747 39.4347 42.0014 37.344 39.9534 37.344ZM34.4174 37.184C35.932 35.6693 37.916 34.912 40.3694 34.912C42.8227 34.912 44.8067 35.6693 46.3214 37.184C47.836 38.6773 48.5934 40.8213 48.5934 43.616C48.5934 46.4107 47.8254 48.5653 46.2894 50.08C44.7747 51.5947 42.7907 52.352 40.3374 52.352C37.9054 52.352 35.932 51.5947 34.4174 50.08C32.9027 48.5653 32.1454 46.4107 32.1454 43.616C32.1454 40.8213 32.9027 38.6773 34.4174 37.184ZM59.4846 37.344C57.65 37.344 56.7326 38.944 56.7326 42.144C56.7326 42.6133 56.754 43.104 56.7966 43.616C57.0526 47.8187 58.226 49.92 60.3166 49.92C62.1513 49.92 63.0686 48.3093 63.0686 45.088C63.0686 44.64 63.0473 44.1493 63.0046 43.616C62.706 39.4347 61.5326 37.344 59.4846 37.344ZM53.9486 37.184C55.4633 35.6693 57.4473 34.912 59.9006 34.912C62.354 34.912 64.338 35.6693 65.8526 37.184C67.3673 38.6773 68.1246 40.8213 68.1246 43.616C68.1246 46.4107 67.3566 48.5653 65.8206 50.08C64.306 51.5947 62.322 52.352 59.8686 52.352C57.4366 52.352 55.4633 51.5947 53.9486 50.08C52.434 48.5653 51.6766 46.4107 51.6766 43.616C51.6766 40.8213 52.434 38.6773 53.9486 37.184Z" fill="black"/>
</svg>
