<svg width="24" height="16" viewBox="0 0 24 16" fill="none" xmlns="http://www.w3.org/2000/svg">
<path d="M23.1671 1.78697C22.3307 2.09002 21.4395 2.2909 20.5104 2.38843C21.4662 1.91702 22.1958 1.17622 22.5387 0.283314C21.6476 0.722219 20.6636 1.03224 19.615 1.20525C18.7688 0.460966 17.5627 0 16.247 0C13.6943 0 11.6392 1.7115 11.6392 3.80965C11.6392 4.11154 11.6701 4.40182 11.7461 4.67817C7.91281 4.52374 4.52094 3.00615 2.24236 0.694352C1.84456 1.26446 1.61122 1.91702 1.61122 2.6195C1.61122 3.93853 2.43353 5.10778 3.65927 5.78472C2.91849 5.77311 2.19176 5.59546 1.57608 5.31563C1.57608 5.32724 1.57608 5.34233 1.57608 5.35743C1.57608 7.20826 3.17432 8.74558 5.27016 9.09973C4.89485 9.18449 4.4858 9.22513 4.06129 9.22513C3.7661 9.22513 3.4681 9.2112 3.18837 9.16011C3.78578 10.6684 5.48101 11.7773 7.49673 11.8133C5.92801 12.8269 3.93619 13.4377 1.7799 13.4377C1.40178 13.4377 1.03911 13.4238 0.676453 13.3854C2.71888 14.4734 5.13944 15.0946 7.74975 15.0946C16.2343 15.0946 20.873 9.28899 20.873 4.25668C20.873 4.08832 20.866 3.92576 20.8562 3.76436C21.7712 3.22792 22.5401 2.55796 23.1671 1.78697Z" fill="#080809"/>
</svg>
