<svg width="31" height="26" viewBox="0 0 31 26" fill="none" xmlns="http://www.w3.org/2000/svg">
<path d="M27.5303 25.2278C26.9058 25.2406 26.2924 25.0619 25.7724 24.7158C25.3853 24.4629 24.933 24.3282 24.4707 24.3282C24.0083 24.3282 23.556 24.4629 23.169 24.7158C22.6437 25.0502 22.0339 25.2278 21.4113 25.2278C20.7886 25.2278 20.1788 25.0502 19.6535 24.7158C19.2665 24.4626 18.8141 24.3278 18.3516 24.3278C17.8891 24.3278 17.4367 24.4626 17.0497 24.7158C16.5244 25.0502 15.9146 25.2278 15.292 25.2278C14.6693 25.2278 14.0595 25.0502 13.5342 24.7158C13.1475 24.4628 12.6953 24.3281 12.2332 24.3281C11.771 24.3281 11.3189 24.4628 10.9322 24.7158C10.4559 25.0323 9.90016 25.2082 9.32855 25.2233L9.29706 24.3234C9.71928 24.3134 10.1293 24.1798 10.4764 23.9392C11.0015 23.6048 11.6111 23.4272 12.2336 23.4272C12.8562 23.4272 13.4658 23.6048 13.9909 23.9392C14.3779 24.1922 14.8303 24.3269 15.2926 24.3269C15.755 24.3269 16.2073 24.1922 16.5943 23.9392C17.1197 23.6045 17.7296 23.4268 18.3525 23.4268C18.9754 23.4268 19.5853 23.6045 20.1107 23.9392C20.4977 24.1922 20.95 24.3269 21.4124 24.3269C21.8747 24.3269 22.3271 24.1922 22.7141 23.9392C23.2394 23.6049 23.8491 23.4273 24.4718 23.4273C25.0945 23.4273 25.7042 23.6049 26.2295 23.9392C26.6175 24.1928 27.0709 24.3278 27.5344 24.3278C27.9979 24.3278 28.4513 24.1928 28.8392 23.9392C29.3586 23.5941 29.971 23.4157 30.5945 23.428V24.3279C30.1303 24.3152 29.6741 24.4509 29.2923 24.7153C28.7711 25.062 28.1562 25.2408 27.5303 25.2278Z" fill="white"/>
<path d="M3.05757 25.2278C2.43318 25.2407 1.81983 25.062 1.30008 24.7158C0.918384 24.4511 0.462197 24.3153 -0.0020752 24.3279V23.428C0.622464 23.415 1.23598 23.5937 1.75587 23.94C2.13736 24.2047 2.59343 24.3406 3.05757 24.3279C3.52193 24.3407 3.9782 24.2046 4.35973 23.9396C4.87851 23.5935 5.49102 23.4149 6.11452 23.428C6.72292 23.4143 7.32125 23.5848 7.83108 23.9171L7.37708 24.6937C7.00468 24.4431 6.56323 24.3152 6.11452 24.3279C5.65209 24.3154 5.19776 24.451 4.81777 24.7149C4.29743 25.0621 3.683 25.2411 3.05757 25.2278Z" fill="white"/>
<path d="M27.5316 22.0778C26.9067 22.0906 26.2928 21.9119 25.7723 21.5658C25.385 21.3126 24.9323 21.1778 24.4695 21.1778C24.0068 21.1778 23.5541 21.3126 23.1667 21.5658C22.6415 21.9001 22.0318 22.0777 21.4092 22.0777C20.7866 22.0777 20.1769 21.9001 19.6517 21.5658C19.2648 21.3128 18.8127 21.1781 18.3504 21.1781C17.8882 21.1781 17.436 21.3128 17.0492 21.5658C16.524 21.9002 15.9143 22.0779 15.2917 22.0779C14.6691 22.0779 14.0594 21.9002 13.5342 21.5658C13.1473 21.3128 12.6951 21.1781 12.2329 21.1781C11.7707 21.1781 11.3185 21.3128 10.9317 21.5658C10.412 21.9121 9.79858 22.0908 9.17418 22.0778C8.54978 22.0908 7.93641 21.9121 7.41668 21.5658C7.03533 21.3012 6.57942 21.1653 6.11543 21.1779C5.65158 21.1653 5.19583 21.3012 4.81463 21.5658C4.29572 21.9117 3.68333 22.0904 3.05983 22.0778C2.43529 22.0908 1.82177 21.9121 1.30188 21.5658C0.919767 21.3006 0.462833 21.1647 -0.0020752 21.1779V20.278C0.622316 20.2651 1.23567 20.4438 1.75542 20.7901C2.13712 21.0547 2.5933 21.1906 3.05758 21.1779C3.52142 21.1905 3.97717 21.0546 4.35838 20.7901C4.87728 20.4442 5.48968 20.2655 6.11318 20.278C6.73804 20.2648 7.35193 20.4435 7.87203 20.7901C8.25351 21.0548 8.70958 21.1907 9.17373 21.1779C9.63787 21.1907 10.0939 21.0548 10.4754 20.7901C11.0006 20.4556 11.6103 20.2779 12.2329 20.2779C12.8556 20.2779 13.4653 20.4556 13.9904 20.7901C14.3773 21.0431 14.8296 21.1778 15.2919 21.1778C15.7542 21.1778 16.2065 21.0431 16.5934 20.7901C17.1185 20.4556 17.7283 20.2779 18.3509 20.2779C18.9735 20.2779 19.5832 20.4556 20.1084 20.7901C20.4953 21.0431 20.9476 21.1778 21.4099 21.1778C21.8722 21.1778 22.3244 21.0431 22.7113 20.7901C23.237 20.4557 23.8472 20.2781 24.4702 20.2781C25.0932 20.2781 25.7033 20.4557 26.229 20.7901C26.6166 21.043 27.0695 21.1777 27.5323 21.1777C27.9952 21.1777 28.448 21.043 28.8356 20.7901C29.3559 20.444 29.9697 20.2654 30.5944 20.278V21.1779C30.1293 21.1648 29.6721 21.3007 29.2896 21.5658C28.7695 21.9116 28.1561 22.0903 27.5316 22.0778Z" fill="white"/>
<path d="M27.5303 18.9285C26.9058 18.9412 26.2923 18.7626 25.7723 18.4164C25.3906 18.1518 24.9344 18.0159 24.4702 18.0286C24.1295 18.0169 23.7911 18.0895 23.4852 18.2401L23.0884 17.4302C23.5179 17.2196 23.9919 17.1157 24.4702 17.1273C25.0954 17.1146 25.7096 17.2938 26.2299 17.6407C26.6179 17.8943 27.0713 18.0294 27.5348 18.0294C27.9983 18.0294 28.4517 17.8943 28.8396 17.6407C29.3588 17.2954 29.971 17.1167 30.5944 17.1287V18.0286C30.1302 18.0159 29.6741 18.1516 29.2923 18.416C28.771 18.7626 28.1561 18.9415 27.5303 18.9285Z" fill="white"/>
<path d="M21.4065 18.9284C20.783 18.9415 20.1705 18.7629 19.6517 18.4168C19.2647 18.1637 18.8122 18.0288 18.3498 18.0288C17.8873 18.0288 17.4349 18.1637 17.0478 18.4168C16.5226 18.7512 15.9128 18.9288 15.2901 18.9288C14.6674 18.9288 14.0577 18.7512 13.5324 18.4168C13.1454 18.1638 12.693 18.0291 12.2307 18.0291C11.7683 18.0291 11.316 18.1638 10.929 18.4168C10.4093 18.7625 9.79639 18.941 9.17238 18.9284C8.54799 18.9413 7.93463 18.7626 7.41488 18.4164C7.03319 18.1517 6.577 18.0159 6.11273 18.0285C5.65029 18.016 5.19596 18.1516 4.81598 18.4155C4.29614 18.7623 3.68239 18.9414 3.05758 18.9284C2.43319 18.9413 1.81983 18.7626 1.30008 18.4164C0.918384 18.1517 0.462197 18.0159 -0.0020752 18.0285V17.1286C0.622465 17.1156 1.23598 17.2943 1.75587 17.6406C2.13736 17.9053 2.59343 18.0412 3.05758 18.0285C3.52193 18.0413 3.9782 17.9052 4.35973 17.6402C4.87851 17.2941 5.49102 17.1155 6.11453 17.1286C6.73891 17.1157 7.35226 17.2944 7.87203 17.6406C8.25351 17.9053 8.70958 18.0412 9.17373 18.0285C9.638 18.0411 10.0942 17.9053 10.4759 17.6406C11.0011 17.3062 11.6109 17.1286 12.2336 17.1286C12.8563 17.1286 13.4661 17.3062 13.9913 17.6406C14.3783 17.8936 14.8307 18.0284 15.293 18.0284C15.7554 18.0284 16.2077 17.8936 16.5947 17.6406C17.1201 17.306 17.73 17.1282 18.3529 17.1282C18.9758 17.1282 19.5857 17.306 20.1111 17.6406C20.5075 17.9073 20.9776 18.0428 21.4551 18.028C21.4898 18.0285 21.5245 18.0267 21.559 18.0226L21.6787 18.9144C21.5884 18.925 21.4974 18.9296 21.4065 18.9284Z" fill="white"/>
<path d="M27.5316 15.778C26.9067 15.7908 26.2928 15.6121 25.7723 15.266C25.385 15.0128 24.9323 14.878 24.4695 14.878C24.0068 14.878 23.5541 15.0128 23.1667 15.266C22.6415 15.6003 22.0318 15.7779 21.4092 15.7779C20.7866 15.7779 20.1769 15.6003 19.6517 15.266C19.2648 15.013 18.8127 14.8783 18.3504 14.8783C17.8882 14.8783 17.436 15.013 17.0492 15.266C16.524 15.6004 15.9143 15.7781 15.2917 15.7781C14.6691 15.7781 14.0594 15.6004 13.5342 15.266C13.1473 15.013 12.6951 14.8783 12.2329 14.8783C11.7707 14.8783 11.3185 15.013 10.9317 15.266C10.412 15.6123 9.79858 15.791 9.17418 15.778C8.54978 15.791 7.93641 15.6123 7.41668 15.266C7.03533 15.0014 6.57942 14.8655 6.11543 14.8781C5.65158 14.8655 5.19583 15.0014 4.81463 15.266C4.29572 15.6119 3.68333 15.7906 3.05983 15.778C2.43529 15.791 1.82177 15.6123 1.30188 15.266C0.919767 15.0008 0.462833 14.8649 -0.0020752 14.8781V13.9782C0.622316 13.9653 1.23567 14.144 1.75542 14.4903C2.13712 14.7549 2.5933 14.8908 3.05758 14.8781C3.52142 14.8907 3.97717 14.7548 4.35838 14.4903C4.87728 14.1444 5.48968 13.9657 6.11318 13.9782C6.73804 13.965 7.35193 14.1437 7.87203 14.4903C8.25351 14.755 8.70958 14.8909 9.17373 14.8781C9.63787 14.8909 10.0939 14.755 10.4754 14.4903C11.0006 14.1558 11.6103 13.9781 12.2329 13.9781C12.8556 13.9781 13.4653 14.1558 13.9904 14.4903C14.3773 14.7433 14.8296 14.878 15.2919 14.878C15.7542 14.878 16.2065 14.7433 16.5934 14.4903C17.1185 14.1558 17.7283 13.9781 18.3509 13.9781C18.9735 13.9781 19.5832 14.1558 20.1084 14.4903C20.4953 14.7433 20.9476 14.878 21.4099 14.878C21.8722 14.878 22.3244 14.7433 22.7113 14.4903C23.237 14.1559 23.8472 13.9783 24.4702 13.9783C25.0932 13.9783 25.7033 14.1559 26.229 14.4903C26.6166 14.7432 27.0695 14.8779 27.5323 14.8779C27.9952 14.8779 28.448 14.7432 28.8356 14.4903C29.3559 14.1442 29.9697 13.9656 30.5944 13.9782V14.8781C30.1293 14.865 29.6721 15.0009 29.2896 15.266C28.7695 15.6118 28.1561 15.7905 27.5316 15.778Z" fill="white"/>
<path d="M21.1198 15.3967L20.2708 15.0988C20.4894 14.4706 20.5788 13.8046 20.5334 13.1409C20.488 12.4772 20.3088 11.8296 20.0066 11.2369L16.9159 5.18467C16.8854 5.1249 16.8687 5.05907 16.8669 4.99198C16.8651 4.9249 16.8784 4.85827 16.9057 4.79697C16.933 4.73566 16.9736 4.68125 17.0247 4.6377C17.0758 4.59416 17.1359 4.56258 17.2008 4.54529L23.3601 2.90298C23.5608 2.85049 23.7327 2.72086 23.8383 2.5423C23.944 2.36373 23.9748 2.15068 23.9241 1.94949C23.8735 1.7483 23.7454 1.57525 23.5679 1.468C23.3903 1.36074 23.1775 1.32795 22.9759 1.37676L15.5211 3.15855C15.3617 3.19621 15.2132 3.27005 15.0869 3.37435C14.9607 3.47865 14.8602 3.61061 14.7931 3.76001C14.7261 3.90941 14.6943 4.07224 14.7003 4.23588C14.7063 4.39952 14.7499 4.55959 14.8277 4.70368L17.0415 8.81621C17.0976 8.92073 17.1102 9.0432 17.0765 9.15697C17.0428 9.27073 16.9655 9.36657 16.8615 9.42364L14.0043 10.9985L13.5701 10.2101L16.0367 8.8504L14.0363 5.13023C13.8932 4.86465 13.8131 4.56972 13.8021 4.26824C13.7912 3.96676 13.8498 3.66681 13.9733 3.39158C14.0968 3.11635 14.282 2.87322 14.5145 2.68098C14.747 2.48875 15.0206 2.35256 15.3141 2.28295L22.7653 0.501606C23.1991 0.391998 23.6586 0.459197 24.0428 0.68842C24.4271 0.917643 24.7045 1.29011 24.8141 1.72389C24.9237 2.15767 24.8565 2.61722 24.6273 3.00146C24.3981 3.38569 24.0256 3.66312 23.5918 3.77273L17.9702 5.27106L20.8085 10.827C21.1659 11.5283 21.3777 12.2947 21.4312 13.08C21.4847 13.8654 21.3788 14.6534 21.1198 15.3967Z" fill="white"/>
<path d="M11.9975 11.0842L6.5296 14.0972L6.96368 14.8849L12.4316 11.872L11.9975 11.0842Z" fill="white"/>
<path d="M25.195 12.404C24.5276 12.404 23.8752 12.2061 23.3202 11.8353C22.7653 11.4645 22.3327 10.9374 22.0773 10.3208C21.8219 9.70418 21.7551 9.02566 21.8853 8.37105C22.0155 7.71643 22.3369 7.11514 22.8088 6.64319C23.2808 6.17124 23.8821 5.84984 24.5367 5.71963C25.1913 5.58942 25.8698 5.65625 26.4865 5.91166C27.1031 6.16708 27.6301 6.59961 28.0009 7.15456C28.3717 7.70952 28.5697 8.36196 28.5697 9.0294C28.5687 9.92411 28.2129 10.7819 27.5802 11.4146C26.9476 12.0472 26.0898 12.4031 25.195 12.404ZM25.195 6.55468C24.7056 6.55468 24.2271 6.69982 23.8202 6.97175C23.4132 7.24367 23.096 7.63017 22.9087 8.08237C22.7214 8.53456 22.6724 9.03215 22.7679 9.51219C22.8634 9.99224 23.0991 10.4332 23.4452 10.7793C23.7913 11.1254 24.2322 11.3611 24.7123 11.4566C25.1923 11.5521 25.6899 11.503 26.1421 11.3157C26.5943 11.1284 26.9808 10.8112 27.2527 10.4043C27.5246 9.99731 27.6698 9.51885 27.6698 9.0294C27.6689 8.37332 27.4079 7.74435 26.944 7.28043C26.4801 6.81651 25.8511 6.55552 25.195 6.55468Z" fill="white"/>
</svg>
